<svg id="Capa_1" enable-background="new 0 0 512 512" height="512" viewBox="0 0 512 512" width="512" xmlns="http://www.w3.org/2000/svg"><g><path d="m437.02 74.98c-48.353-48.351-112.64-74.98-181.02-74.98s-132.667 26.629-181.02 74.98c-48.351 48.353-74.98 112.64-74.98 181.02s26.629 132.667 74.98 181.02c48.353 48.351 112.64 74.98 181.02 74.98s132.667-26.629 181.02-74.98c48.351-48.353 74.98-112.64 74.98-181.02s-26.629-132.667-74.98-181.02zm-181.02 407.02c-124.617 0-226-101.383-226-226s101.383-226 226-226 226 101.383 226 226-101.383 226-226 226z"/><path d="m372.362 142.416c-5.271-2.468-11.494-1.665-15.965 2.061l-95.397 79.497v-67.974c0-5.82-3.367-11.115-8.638-13.584-5.271-2.468-11.494-1.665-15.965 2.061l-120 100c-3.419 2.85-5.397 7.072-5.397 11.523s1.978 8.673 5.397 11.523l120 100c2.749 2.291 6.16 3.477 9.605 3.477 2.158 0 4.33-.465 6.36-1.416 5.271-2.469 8.638-7.764 8.638-13.584v-67.974l95.397 79.497c2.749 2.291 6.16 3.477 9.605 3.477 2.158 0 4.33-.465 6.36-1.416 5.271-2.469 8.638-7.764 8.638-13.584v-200c0-5.82-3.367-11.115-8.638-13.584zm-141.362 181.559-81.569-67.975 81.569-67.974zm120 0-81.569-67.975 81.569-67.974z"/></g></svg>